<svg width="175" height="70" viewBox="0 0 175 70" fill="none" xmlns="http://www.w3.org/2000/svg">
<path d="M90 27C90 18.7157 96.7157 12 105 12H134V41C134 49.2843 127.284 56 119 56H90V27Z" fill="white"/>
<path d="M64.9626 34.4L60.8666 43.04C60.2693 44.192 59.5226 44.768 58.6266 44.768C57.7519 44.768 57.0159 44.16 56.4186 42.944L52.2586 34.4V48H47.8106V25.216H52.1946L58.6266 38.368L65.0266 25.216H69.4106V48H64.9626V34.4ZM89.0761 29.184H81.0441C80.1054 29.184 79.4441 29.3653 79.0601 29.728C78.6974 30.0907 78.5161 30.72 78.5161 31.616V34.784H86.8681L86.5481 38.752H78.5161V48H74.0681V29.856C74.0681 28.1707 74.4308 26.976 75.1561 26.272C75.9028 25.568 77.1721 25.216 78.9641 25.216H89.0761V29.184Z" fill="white"/>
<path d="M107.151 44.77C107.038 45.382 106.981 45.9033 106.981 46.334C106.981 46.9007 107.117 47.4107 107.389 47.864C106.709 48.408 105.95 48.68 105.111 48.68C104.34 48.68 103.796 48.4873 103.479 48.102C103.184 47.7167 103.037 47.15 103.037 46.402C103.037 45.9487 103.162 44.974 103.411 43.478L104.329 38.14H96.9171L95.0131 48H91.0351L95.3531 25.56H99.3991L97.3931 35.76H104.771L106.675 25.56H110.721L107.151 44.77ZM116.271 25.56C117.268 25.492 118.402 25.424 119.671 25.356C120.963 25.288 121.972 25.254 122.697 25.254C124.669 25.254 126.222 25.5373 127.355 26.104C128.511 26.6707 129.338 27.532 129.837 28.688C130.336 29.844 130.585 31.34 130.585 33.176C130.585 35.8507 130.132 38.3327 129.225 40.622C128.318 42.9113 126.924 44.77 125.043 46.198C123.162 47.6033 120.827 48.306 118.039 48.306C117.268 48.306 116.328 48.272 115.217 48.204C114.106 48.1587 113.007 48.0907 111.919 48L116.271 25.56ZM116.339 45.722C116.724 45.79 117.178 45.8467 117.699 45.892C118.22 45.9373 118.685 45.96 119.093 45.96C120.77 45.96 122.096 45.348 123.071 44.124C124.046 42.9 124.794 41.234 125.315 39.126C125.564 38.106 125.791 36.95 125.995 35.658C126.199 34.366 126.301 33.2327 126.301 32.258C126.301 30.694 125.984 29.538 125.349 28.79C124.737 28.0193 123.706 27.634 122.255 27.634C121.552 27.634 120.748 27.7133 119.841 27.872L116.339 45.722Z" fill="#B60000"/>
</svg>
